<svg xmlns="http://www.w3.org/2000/svg" width="27.206" height="18.138" viewBox="0 0 27.206 18.138"><rect width="27.206" height="18.138" transform="translate(0 0)" fill="#f0f0f0"/><g transform="translate(0 2.267)"><rect width="27.206" height="2.267" fill="#d80027"/><rect width="27.206" height="2.267" transform="translate(0 4.535)" fill="#d80027"/><rect width="27.206" height="2.267" transform="translate(0 9.069)" fill="#d80027"/><rect width="27.206" height="2.267" transform="translate(0 13.603)" fill="#d80027"/></g><rect width="13.603" height="9.767" transform="translate(0 0)" fill="#2e52b2"/><g transform="translate(1.382 1.569)"><path d="M83.291,160.624l-.219.674h-.709l.573.416-.219.674.573-.416.573.416-.219-.674.573-.416h-.709Z" transform="translate(-79.368 -158.192)" fill="#f0f0f0"/><path d="M83.509,207.071l-.219-.674-.219.674h-.709l.573.416-.219.674.573-.416.573.416-.219-.674.573-.416Z" transform="translate(-79.368 -201.532)" fill="#f0f0f0"/><path d="M27.147,207.071l-.219-.674-.219.674H26l.573.416-.219.674.573-.416.573.416-.219-.674.573-.416Z" transform="translate(-26.001 -201.532)" fill="#f0f0f0"/><path d="M26.929,160.624l-.219.674H26l.573.416-.219.674.573-.416.573.416-.219-.674.573-.416h-.709Z" transform="translate(-26.001 -158.192)" fill="#f0f0f0"/><path d="M83.291,114.85l-.219.674h-.709l.573.416-.219.674.573-.416.573.416-.219-.674.573-.416h-.709Z" transform="translate(-79.368 -114.85)" fill="#f0f0f0"/><path d="M26.929,114.85l-.219.674H26l.573.416-.219.674.573-.416.573.416-.219-.674.573-.416h-.709Z" transform="translate(-26.001 -114.85)" fill="#f0f0f0"/><path d="M139.653,160.624l-.219.674h-.709l.573.416-.219.674.573-.416.573.416-.219-.674.573-.416h-.709Z" transform="translate(-132.735 -158.192)" fill="#f0f0f0"/><path d="M139.871,207.071l-.219-.674-.219.674h-.709l.573.416-.219.674.573-.416.573.416-.219-.674.573-.416Z" transform="translate(-132.735 -201.532)" fill="#f0f0f0"/><path d="M196.234,207.071l-.219-.674-.219.674h-.709l.573.416-.219.674.573-.416.573.416-.219-.674.573-.416Z" transform="translate(-186.103 -201.532)" fill="#f0f0f0"/><path d="M196.016,160.624l-.219.674h-.709l.573.416-.219.674.573-.416.573.416-.219-.674.573-.416h-.709Z" transform="translate(-186.103 -158.192)" fill="#f0f0f0"/><path d="M139.653,114.85l-.219.674h-.709l.573.416-.219.674.573-.416.573.416-.219-.674.573-.416h-.709Z" transform="translate(-132.735 -114.85)" fill="#f0f0f0"/><path d="M196.016,114.85l-.219.674h-.709l.573.416-.219.674.573-.416.573.416-.219-.674.573-.416h-.709Z" transform="translate(-186.103 -114.85)" fill="#f0f0f0"/></g></svg>