<svg xmlns="http://www.w3.org/2000/svg" width="27.207" height="18.138" viewBox="0 0 27.207 18.138"><rect width="27.206" height="18.138" transform="translate(0 0)" fill="#f0f0f0"/><path d="M15.3,85.33H11.9V92.7H0v3.4H11.9v7.368h3.4V96.1h11.9V92.7H15.3Z" transform="translate(0 -85.33)" fill="#d80027"/><g transform="translate(16.56 12.223)"><path d="M393.785,315.358l6.282,3.49v-3.49Z" transform="translate(-389.421 -315.358)" fill="#0052b4"/><path d="M311.652,315.358l10.646,5.914V319.6l-7.635-4.242Z" transform="translate(-311.652 -315.358)" fill="#0052b4"/><path d="M319.462,349.337,311.652,345v4.339Z" transform="translate(-311.652 -343.423)" fill="#0052b4"/></g><path d="M311.652,315.358l10.646,5.914V319.6l-7.635-4.242Z" transform="translate(-295.092 -303.135)" fill="#f0f0f0"/><path d="M311.652,315.358l10.646,5.914V319.6l-7.635-4.242Z" transform="translate(-295.092 -303.135)" fill="#d80027"/><g transform="translate(0 12.223)"><path d="M4.8,315.356,0,318.023v-2.667Z" transform="translate(0 -315.356)" fill="#0052b4"/><path d="M34.782,329.51v5.162H25.491Z" transform="translate(-24.136 -328.758)" fill="#0052b4"/></g><path d="M7.635,315.358,0,319.6v1.672H0l10.646-5.914Z" transform="translate(0 -303.135)" fill="#d80027"/><g transform="translate(0 0)"><path d="M6.282,134.448,0,130.958v3.49Z" transform="translate(0 -128.533)" fill="#0052b4"/><path d="M10.646,91.244,0,85.33V87l7.635,4.242Z" transform="translate(0 -85.33)" fill="#0052b4"/><path d="M53.366,85.33l7.81,4.339V85.33Z" transform="translate(-50.53 -85.33)" fill="#0052b4"/></g><path d="M10.646,91.244,0,85.33V87l7.635,4.242Z" transform="translate(0 -85.33)" fill="#f0f0f0"/><path d="M10.646,91.244,0,85.33V87l7.635,4.242Z" transform="translate(0 -85.33)" fill="#d80027"/><g transform="translate(16.56 0)"><path d="M421.659,149.113l4.8-2.667v2.667Z" transform="translate(-415.814 -143.199)" fill="#0052b4"/><path d="M311.652,90.493V85.331h9.291Z" transform="translate(-311.652 -85.331)" fill="#0052b4"/></g><path d="M314.663,91.244,322.3,87V85.33h0l-10.646,5.914Z" transform="translate(-295.092 -85.33)" fill="#d80027"/></svg>